<mxfile host="app.diagrams.net" modified="2023-02-23T13:23:20.614Z" agent="5.0 (Windows NT 10.0; Win64; x64) AppleWebKit/537.36 (KHTML, like Gecko) Chrome/110.0.0.0 Safari/537.36 Edg/110.0.1587.50" etag="x2JrM2YRxo9sP6j6YMXl" version="20.8.20" type="github">
  <diagram name="Page-1" id="2YBvvXClWsGukQMizWep">
    <mxGraphModel dx="855" dy="498" grid="1" gridSize="10" guides="1" tooltips="1" connect="1" arrows="1" fold="1" page="1" pageScale="1" pageWidth="850" pageHeight="1100" math="0" shadow="0">
      <root>
        <mxCell id="0" />
        <mxCell id="1" parent="0" />
        <mxCell id="SnPpPwCfZL3ynLTcUYY0-78" value="" style="rounded=1;whiteSpace=wrap;html=1;fontSize=14;" vertex="1" parent="1">
          <mxGeometry x="460" y="121" width="160" height="341" as="geometry" />
        </mxCell>
        <mxCell id="SnPpPwCfZL3ynLTcUYY0-75" value="" style="rounded=1;whiteSpace=wrap;html=1;fontSize=14;" vertex="1" parent="1">
          <mxGeometry x="272" y="121" width="160" height="341" as="geometry" />
        </mxCell>
        <mxCell id="SnPpPwCfZL3ynLTcUYY0-8" value="" style="rounded=1;whiteSpace=wrap;html=1;rotation=270;fillColor=#f5f5f5;strokeColor=#666666;gradientColor=#b3b3b3;" vertex="1" parent="1">
          <mxGeometry x="245" y="121" width="20" height="10" as="geometry" />
        </mxCell>
        <mxCell id="SnPpPwCfZL3ynLTcUYY0-9" value="" style="rounded=1;whiteSpace=wrap;html=1;rotation=270;fillColor=#f5f5f5;strokeColor=#666666;gradientColor=#b3b3b3;" vertex="1" parent="1">
          <mxGeometry x="245" y="146" width="20" height="10" as="geometry" />
        </mxCell>
        <mxCell id="SnPpPwCfZL3ynLTcUYY0-10" value="" style="rounded=1;whiteSpace=wrap;html=1;rotation=270;fillColor=#f5f5f5;strokeColor=#666666;gradientColor=#b3b3b3;" vertex="1" parent="1">
          <mxGeometry x="245" y="171" width="20" height="10" as="geometry" />
        </mxCell>
        <mxCell id="SnPpPwCfZL3ynLTcUYY0-11" value="" style="rounded=1;whiteSpace=wrap;html=1;rotation=270;fillColor=#f5f5f5;strokeColor=#666666;gradientColor=#b3b3b3;" vertex="1" parent="1">
          <mxGeometry x="245" y="196" width="20" height="10" as="geometry" />
        </mxCell>
        <mxCell id="SnPpPwCfZL3ynLTcUYY0-12" value="" style="rounded=1;whiteSpace=wrap;html=1;rotation=270;fillColor=#f5f5f5;strokeColor=#666666;gradientColor=#b3b3b3;" vertex="1" parent="1">
          <mxGeometry x="245" y="221" width="20" height="10" as="geometry" />
        </mxCell>
        <mxCell id="SnPpPwCfZL3ynLTcUYY0-13" value="" style="rounded=1;whiteSpace=wrap;html=1;rotation=270;fillColor=#f5f5f5;strokeColor=#666666;gradientColor=#b3b3b3;" vertex="1" parent="1">
          <mxGeometry x="245" y="246" width="20" height="10" as="geometry" />
        </mxCell>
        <mxCell id="SnPpPwCfZL3ynLTcUYY0-14" value="" style="rounded=1;whiteSpace=wrap;html=1;rotation=270;fillColor=#f5f5f5;strokeColor=#666666;gradientColor=#b3b3b3;" vertex="1" parent="1">
          <mxGeometry x="245" y="271" width="20" height="10" as="geometry" />
        </mxCell>
        <mxCell id="SnPpPwCfZL3ynLTcUYY0-15" value="" style="rounded=1;whiteSpace=wrap;html=1;rotation=270;fillColor=#f5f5f5;strokeColor=#666666;gradientColor=#b3b3b3;" vertex="1" parent="1">
          <mxGeometry x="245" y="295" width="20" height="10" as="geometry" />
        </mxCell>
        <mxCell id="SnPpPwCfZL3ynLTcUYY0-16" value="" style="rounded=1;whiteSpace=wrap;html=1;rotation=270;fillColor=#f5f5f5;strokeColor=#666666;gradientColor=#b3b3b3;" vertex="1" parent="1">
          <mxGeometry x="245" y="320" width="20" height="10" as="geometry" />
        </mxCell>
        <mxCell id="SnPpPwCfZL3ynLTcUYY0-17" value="" style="rounded=1;whiteSpace=wrap;html=1;rotation=270;fillColor=#f5f5f5;strokeColor=#666666;gradientColor=#b3b3b3;" vertex="1" parent="1">
          <mxGeometry x="245" y="345" width="20" height="10" as="geometry" />
        </mxCell>
        <mxCell id="SnPpPwCfZL3ynLTcUYY0-18" value="" style="rounded=1;whiteSpace=wrap;html=1;rotation=270;fillColor=#f5f5f5;strokeColor=#666666;gradientColor=#b3b3b3;" vertex="1" parent="1">
          <mxGeometry x="245" y="370" width="20" height="10" as="geometry" />
        </mxCell>
        <mxCell id="SnPpPwCfZL3ynLTcUYY0-19" value="" style="rounded=1;whiteSpace=wrap;html=1;rotation=270;fillColor=#f5f5f5;strokeColor=#666666;gradientColor=#b3b3b3;" vertex="1" parent="1">
          <mxGeometry x="245" y="420" width="20" height="10" as="geometry" />
        </mxCell>
        <mxCell id="SnPpPwCfZL3ynLTcUYY0-20" value="" style="rounded=1;whiteSpace=wrap;html=1;rotation=270;fillColor=#f5f5f5;strokeColor=#666666;gradientColor=#b3b3b3;" vertex="1" parent="1">
          <mxGeometry x="245" y="395" width="20" height="10" as="geometry" />
        </mxCell>
        <mxCell id="SnPpPwCfZL3ynLTcUYY0-21" value="" style="rounded=1;whiteSpace=wrap;html=1;rotation=270;fillColor=#f5f5f5;strokeColor=#666666;gradientColor=#b3b3b3;" vertex="1" parent="1">
          <mxGeometry x="245" y="445" width="20" height="10" as="geometry" />
        </mxCell>
        <mxCell id="SnPpPwCfZL3ynLTcUYY0-23" value="" style="rounded=1;whiteSpace=wrap;html=1;rotation=270;fillColor=#d5e8d4;strokeColor=#82b366;flipV=1;" vertex="1" parent="1">
          <mxGeometry x="436" y="147" width="20" height="10" as="geometry" />
        </mxCell>
        <mxCell id="SnPpPwCfZL3ynLTcUYY0-24" value="" style="rounded=1;whiteSpace=wrap;html=1;rotation=270;fillColor=#fff2cc;strokeColor=#d6b656;flipV=1;" vertex="1" parent="1">
          <mxGeometry x="436" y="172" width="20" height="10" as="geometry" />
        </mxCell>
        <mxCell id="SnPpPwCfZL3ynLTcUYY0-25" value="" style="rounded=1;whiteSpace=wrap;html=1;rotation=270;fillColor=#d5e8d4;strokeColor=#82b366;flipV=1;" vertex="1" parent="1">
          <mxGeometry x="436" y="197" width="20" height="10" as="geometry" />
        </mxCell>
        <mxCell id="SnPpPwCfZL3ynLTcUYY0-26" value="" style="rounded=1;whiteSpace=wrap;html=1;rotation=270;fillColor=#d5e8d4;strokeColor=#82b366;flipV=1;" vertex="1" parent="1">
          <mxGeometry x="436" y="221" width="20" height="10" as="geometry" />
        </mxCell>
        <mxCell id="SnPpPwCfZL3ynLTcUYY0-27" value="" style="rounded=1;whiteSpace=wrap;html=1;rotation=270;fillColor=#d5e8d4;strokeColor=#82b366;flipV=1;" vertex="1" parent="1">
          <mxGeometry x="436" y="246" width="20" height="10" as="geometry" />
        </mxCell>
        <mxCell id="SnPpPwCfZL3ynLTcUYY0-28" value="" style="rounded=1;whiteSpace=wrap;html=1;rotation=270;fillColor=#d5e8d4;strokeColor=#82b366;flipV=1;" vertex="1" parent="1">
          <mxGeometry x="436" y="271" width="20" height="10" as="geometry" />
        </mxCell>
        <mxCell id="SnPpPwCfZL3ynLTcUYY0-29" value="" style="rounded=1;whiteSpace=wrap;html=1;rotation=270;fillColor=#d5e8d4;strokeColor=#82b366;flipV=1;" vertex="1" parent="1">
          <mxGeometry x="436" y="296" width="20" height="10" as="geometry" />
        </mxCell>
        <mxCell id="SnPpPwCfZL3ynLTcUYY0-30" value="" style="rounded=1;whiteSpace=wrap;html=1;rotation=270;fillColor=#f8cecc;strokeColor=#b85450;flipV=1;" vertex="1" parent="1">
          <mxGeometry x="436" y="321" width="20" height="10" as="geometry" />
        </mxCell>
        <mxCell id="SnPpPwCfZL3ynLTcUYY0-31" value="" style="rounded=1;whiteSpace=wrap;html=1;rotation=270;fillColor=#f8cecc;strokeColor=#b85450;flipV=1;" vertex="1" parent="1">
          <mxGeometry x="436" y="346" width="20" height="10" as="geometry" />
        </mxCell>
        <mxCell id="SnPpPwCfZL3ynLTcUYY0-32" value="" style="rounded=1;whiteSpace=wrap;html=1;rotation=270;fillColor=#ffe6cc;strokeColor=#d79b00;flipV=1;" vertex="1" parent="1">
          <mxGeometry x="436" y="370" width="20" height="10" as="geometry" />
        </mxCell>
        <mxCell id="SnPpPwCfZL3ynLTcUYY0-33" value="" style="rounded=0;whiteSpace=wrap;html=1;rotation=270;arcSize=41;fillColor=#fff2cc;strokeColor=#d6b656;flipV=1;" vertex="1" parent="1">
          <mxGeometry x="436" y="395" width="20" height="10" as="geometry" />
        </mxCell>
        <mxCell id="SnPpPwCfZL3ynLTcUYY0-34" value="" style="rounded=1;whiteSpace=wrap;html=1;rotation=270;fillColor=#d5e8d4;strokeColor=#82b366;flipV=1;" vertex="1" parent="1">
          <mxGeometry x="436" y="420" width="20" height="10" as="geometry" />
        </mxCell>
        <mxCell id="SnPpPwCfZL3ynLTcUYY0-54" value="Fibre distribution" style="rounded=1;whiteSpace=wrap;html=1;fontSize=17;strokeColor=none;" vertex="1" parent="1">
          <mxGeometry x="289" y="213" width="120" height="25" as="geometry" />
        </mxCell>
        <mxCell id="SnPpPwCfZL3ynLTcUYY0-55" value="Fibre Volume Content" style="rounded=1;whiteSpace=wrap;html=1;fontSize=17;strokeColor=none;" vertex="1" parent="1">
          <mxGeometry x="289" y="330.5" width="120" height="25" as="geometry" />
        </mxCell>
        <mxCell id="SnPpPwCfZL3ynLTcUYY0-56" value="Porosity" style="rounded=1;whiteSpace=wrap;html=1;fontSize=17;strokeColor=none;" vertex="1" parent="1">
          <mxGeometry x="289" y="395.5" width="120" height="25" as="geometry" />
        </mxCell>
        <mxCell id="SnPpPwCfZL3ynLTcUYY0-63" value="" style="shape=image;verticalLabelPosition=bottom;labelBackgroundColor=default;verticalAlign=top;imageAspect=0;image=data:image/png,iVBORw0KGgoAAAANSUhEUgAAAggAAAAGCAYAAACmaWY6AAAAAXNSR0IArs4c6QAAC9hJREFUaEPtmbfrlEsUhmfNOeecsyKIoRHRRsFGEHvBTiv/LG0VLCwstBEVQVAx55xzdi/PcJ8fL8N6vX/ALizf7HxnzpzzzomzncOHD3dL/9NHoI9AH4E+An0E+gj0EQgEOvv27esOHTq0/P79u/z69asMHjy4vv748WMZM2ZMHTM/aNCg0ul0ys+fPwv0jLvdbv3yjnnmWO8Yuu/fv9c53uX6Dx8+lJEjR1ZeP378qO/gAz9kUQ72HjVqVKVxb57QDBkypAwbNqx8/vy5TJ06tbx69aruh9zQs5Y9vnz5Up/8HjFiRHn//n0ZN25cUQZ0dF/pxIJ9+Ko/Yz7Ix77sP3z48Mpz7NixdS/eIcfo0aPLt2/fqo7Iyhx6+oGOL3vBF7qvX7/WOfh++vSpPlmLPnzhydmgB3Twh2fiyDvm4Yts8IH/+PHjy7t37+qcciATe0ArXuKrXYANdJwD76D3zJANmaFhX+jEDvmg8/zQG3o+eeZpd2INDXvBQ+yYQyZ0cz7lYJ5zgkYbRFZlSrkds7fYwV8s3Mu16CYunAE6i6+2Bq7QgAVj5rVTzxj70pbFQj31I23ftfBLjFgPjfQ8074ct9ghE/p4DvCHt5iqvziiM3piK+DiOaMDNKxlDE94iSnzjMUisXZee+cJHTLra8idccC4YRwBC+i1r4wt4mLM0kfAKOk9c+f1zfQjZFVPsUAu7Flc9DX1h0/qrx1pO/q78/pdi51YiJd+l/bFXtiC2BnfxM612g666l8tLvDlPd/0KcZpX8YI8dKm2NPYr25pX/CHFzI5r87QgymxU3wZQ2dMZcxenEfaGmv1NX3ZXMZZmqOwkcxx/JYeHpwnfPS1tBfe8xud0+7UU4zUH1r9JeMIe4qX+qTdOU5bw7/a+Kr/alNiqj489WuxVn/2QIbWvvQX9Evf6Rw6dKiLQghF4oExAfDt27cDiZRFJEMOi3mS64sXL8qkSZNqcOEdijx79qxMnjy5KsQBa2gZIDRS3puoECiBhEajtnDQgE2WFiOtMTOfNPIyqWfgMWibFDKYJ8CZCBJYZdSoNEgLGQ2yTQRtwMsCRGPzYA2K0qhPL1w0MPZrCzaNKvEy2BiQxSgLFvWVZxv8NSgDPmuRA3tKrB1Dz9ikqKOil0UBNGKU48QC2sSxV5FqwBML7ULn71XUZpIW61ZenVwb1CF7YaEdQcN+FlrghT7ii+3oBxajJkJ4yFtZ1C1tRx+5ePFiWbFiRd1rwoQJdV91TlnVX5/0/Fu8EvdMhKm/9sWe7sWc8mnPqYf6619pdybOLFITrywWtF+blTbIwwtZaQiIbYld6mwigJ6YINb6GjpcvXq1rFmzpmKagVoa92qTpfTOi136l/pbaKZPaQPPnz8vEydOrPbQ+q9JOv0ufQrZly5dWm7evFntQ1mzaQEjGiz90WTRxp1WT+08Yx/yw5vcQI6w8E37ShyNX9OmTav5xUSLDZCb9JFbt26V5cuXDyRs9iCuvX79ujaKGReQi3fEIwsoigxkQlfjC2vJZ8gMvUkU/MyJ0JP70MUkjp2Yy7Rx6PA7P9ol+tGk8R5aZLhx40Y9E2SyKbRYwlYtvuFF/tUvbLzAhb3gid7sBV9th9/wMDchKzrcv3+/TJkypfLjvFmPbDY1+ldn//79XRiT1AHICpdNHj58WObMmVP1ZLxs2bK6GbQcIJvyYaNHjx6VmTNnDnRjAI/wHDIC6cR0s4D75s2baugcBMIxf/369bJp06Y6Zh7+dObIx5qXL1/WJ8ChOHyvXbtW+XB7AMistyLk+eTJk3L79u0yd+7ccuXKlVrAXLp0qeq6devWyuPs2bNlx44d1XEAbsOGDQUj5D18jx49Wvbu3Vsx0IgxRGSbP39+lZfCiS/rAXr69OnlwYMHZdGiRdWRMSorYpx8/fr15fTp02XevHnl3r175enTp+XAgQPl3LlzVY8FCxZUDFiL8eI08HV8/PjxGqg4cDAGTwxo1qxZFWv4oCs07M0YfgQJZEYW1rIOevSxK8ZIkH3hwoVVn7Vr19az4PYBHTlnsGSN3QtYw9/AZeDFBtDNQM/ZISO8vJHQYdmX83j8+HHFgPfwA3fk9yZEp7UAc2+DEzzAyUCh44EP9syZshd74BzIxp5ip9MgNzywHe2fIhgb4OyRD2ztMvOmw0LI5OetRyYOCwCDb+LBmL1xfnwLrNkXO0Au+IAHOmMX6MFZoru3dgZVg2QmFLAzmXuDYIeTtztZEOfNjcnMJJCFQCaJTD4WRdkQmMy9WbFRgAZs0Qe7NHkjm4nQwsaiwwSgXZgo7YBNTCY9k7qFjIHchONNlAU+7y0KlKm9TfN2R55tI5Ndpjes0ORNlzc0BvlenWLbBECbBY4FRc57lpcvX64+7dlZpGfRZZGX602cWWRmgS9u6KJN80xZoFEOYjA2i60zx29sln28icnbanTG77B1i7cWI290wMLiBL8mbvHxRpf4Q97Av5CBJz5OPCZfgAVzyMOYvZHTmGCCVxf2sgglzlg4UMh4C4Afz549u/KEF/ESudh/1apVNeYaA8CC2Euc3bJlS41Pq1evrnETHeEFLfEU+e7cuVNxIbbBXz9SX+IGX/2edeDMBz31bX6zB36HPJ09e/Z0Td5pMDp8HqjXLByahYROZkeYhiG9Dmp3bJdmwGivtwz4BjADAXR5FZd/Yeh4gMPBG0h6XXti4CYsZOh1vWnwtiq0ekUGDpxn8sluj3dt54tOGZgIMP59kJ2cQdyAkZ2fwSmrbg85r8mzU3Zs55/X4VaLXtHl7QB65zV53rJkQsHQvA7MpNjiq0MbbL0azWpfW+PZ3gIZaHE+ZUM+nAjZSPzQ4GzIxNPgBD2YWf2bSLKIJRlZlOIsYi1GnLmF5+LFi2vhSeChEIEvyZrCi2LPLtVbNBwaGnixjqIR+cDETgR7oAggABlgeU/xTXDQRtERvll0og/OzxPbNxASZLztQCaLTXThe+rUqbJx48YaIAgKvLd7JFiCNe+OHTtWdeWLHMydOHGi7Nq1q54FQZt9CGZgwG8C7fnz5+sadKf4p2ulQAVfgh02Ai//qoM3xTPFIPjAk8BHQYou4HL37t0BOT0/3hPMeFo4sX7GjBkVb4q6JUuWVDlYc+HChYrz9u3bq1zEDM6UxLl79+6BLop1nAm80W3z5s21IcGuaGp27txZjhw5UpsB7ADdOQdsct26dTWIE8NopsAfG6HY5JzYk3fQnTx5smzbtq3qDl7ewIIDTYSNGfiRULAxZAN7cOasaGboRjk/kj+YIiuYgSN8z5w5U7ElsdBIwQNb4kxWrlxZbQLZ/ZsVmU2AJDYaNGTGJtGJJ3hz3v7NawLD1tHRYo09Te68Y1/OFH3MIeDKGv8WhbcJnzE8wJAzxM45Y94b08AVmXnaZPJemfRf4zBPi6IsTL3lsxDyrxr/VkLO/GvXmG3jkvFLvhmnpTd/QZN/txjLLUJsQNq/CL3F8bYLPuqDjNgCNsXYfwjgCY42uuZ+/3qwmZBn5+DBg90M7F4tmfDbxGYR4TwbmMDtFvJaykJDepWwKLDQsHq3u3A+q2LXZgUrfV5d5jivbq26LQpyLw255WOB4PWNa+187GYweJOo/z+ZSNvEqfwmIZ3Q4kosrN7zCjWvKPPaL3FUh8RaJ7QzI/ibTJWvxReeypD6e1WInM4TiHFauwGdyko+dWSO3/41hR5W4Kkfstq16Hx5HZ7FaBYXyEXQJBg7n7ppU9p40uAoyC5NdlDw9WxybMFrQSIuGTD0m6T5L/pc22ssrna1noM4tsV+6qOfurYq++9HPslfG08s/u+4XSv/Xji2embsSFl7rU0ctK9W5zxnsf8TjrlHrxjU6p96/km+lqfnYKNkrEnZWntJf/wbXuprTP8bfeqpT7Z25G2AySn97k9j9219KmOWsUYc07/+5PsZfzx/u3UxlQ+y5e0C8yZBGwhzBbTeXFhEECNt6pAn8yO8eEfsE5c2TtkEGsuzsW4xNX4jl7dY7Jm5qcUr86ANZNJo5za1+ohyirvzxvh/ALItfh0le9DNAAAAAElFTkSuQmCC;rotation=-90;opacity=70;" vertex="1" parent="1">
          <mxGeometry x="-111.00000000000006" y="280" width="343.37" height="17.87" as="geometry" />
        </mxCell>
        <mxCell id="SnPpPwCfZL3ynLTcUYY0-64" value="" style="group;movable=1;resizable=1;rotatable=1;deletable=1;editable=1;locked=0;connectable=1;" vertex="1" connectable="0" parent="1">
          <mxGeometry x="629.5" y="121.5" width="10" height="346" as="geometry" />
        </mxCell>
        <mxCell id="SnPpPwCfZL3ynLTcUYY0-36" value="" style="rounded=1;whiteSpace=wrap;html=1;rotation=270;fillColor=#fff2cc;strokeColor=none;movable=1;resizable=1;rotatable=1;deletable=1;editable=1;locked=0;connectable=1;" vertex="1" parent="SnPpPwCfZL3ynLTcUYY0-64">
          <mxGeometry x="-7.5" y="7.5" width="25" height="10" as="geometry" />
        </mxCell>
        <mxCell id="SnPpPwCfZL3ynLTcUYY0-37" value="" style="rounded=1;whiteSpace=wrap;html=1;rotation=270;fillColor=#d5e8d4;strokeColor=none;movable=1;resizable=1;rotatable=1;deletable=1;editable=1;locked=0;connectable=1;" vertex="1" parent="SnPpPwCfZL3ynLTcUYY0-64">
          <mxGeometry x="-7.5" y="32.5" width="25" height="10" as="geometry" />
        </mxCell>
        <mxCell id="SnPpPwCfZL3ynLTcUYY0-38" value="" style="rounded=1;whiteSpace=wrap;html=1;rotation=270;fillColor=#fff2cc;strokeColor=none;movable=1;resizable=1;rotatable=1;deletable=1;editable=1;locked=0;connectable=1;" vertex="1" parent="SnPpPwCfZL3ynLTcUYY0-64">
          <mxGeometry x="-7.5" y="56.5" width="25" height="10" as="geometry" />
        </mxCell>
        <mxCell id="SnPpPwCfZL3ynLTcUYY0-39" value="" style="rounded=1;whiteSpace=wrap;html=1;rotation=270;fillColor=#d5e8d4;strokeColor=none;movable=1;resizable=1;rotatable=1;deletable=1;editable=1;locked=0;connectable=1;" vertex="1" parent="SnPpPwCfZL3ynLTcUYY0-64">
          <mxGeometry x="-7.5" y="81.5" width="25" height="10" as="geometry" />
        </mxCell>
        <mxCell id="SnPpPwCfZL3ynLTcUYY0-40" value="" style="rounded=1;whiteSpace=wrap;html=1;rotation=270;fillColor=#d5e8d4;strokeColor=none;movable=1;resizable=1;rotatable=1;deletable=1;editable=1;locked=0;connectable=1;" vertex="1" parent="SnPpPwCfZL3ynLTcUYY0-64">
          <mxGeometry x="-7.5" y="106.5" width="25" height="10" as="geometry" />
        </mxCell>
        <mxCell id="SnPpPwCfZL3ynLTcUYY0-41" value="" style="rounded=1;whiteSpace=wrap;html=1;rotation=270;fillColor=#d5e8d4;strokeColor=none;movable=1;resizable=1;rotatable=1;deletable=1;editable=1;locked=0;connectable=1;" vertex="1" parent="SnPpPwCfZL3ynLTcUYY0-64">
          <mxGeometry x="-7.5" y="130.5" width="25" height="10" as="geometry" />
        </mxCell>
        <mxCell id="SnPpPwCfZL3ynLTcUYY0-42" value="" style="rounded=1;whiteSpace=wrap;html=1;rotation=270;fillColor=#d5e8d4;strokeColor=none;movable=1;resizable=1;rotatable=1;deletable=1;editable=1;locked=0;connectable=1;" vertex="1" parent="SnPpPwCfZL3ynLTcUYY0-64">
          <mxGeometry x="-7.5" y="155.5" width="25" height="10" as="geometry" />
        </mxCell>
        <mxCell id="SnPpPwCfZL3ynLTcUYY0-43" value="" style="rounded=1;whiteSpace=wrap;html=1;rotation=270;fillColor=#d5e8d4;strokeColor=none;movable=1;resizable=1;rotatable=1;deletable=1;editable=1;locked=0;connectable=1;" vertex="1" parent="SnPpPwCfZL3ynLTcUYY0-64">
          <mxGeometry x="-7.5" y="180.5" width="25" height="10" as="geometry" />
        </mxCell>
        <mxCell id="SnPpPwCfZL3ynLTcUYY0-44" value="" style="rounded=1;whiteSpace=wrap;html=1;rotation=270;fillColor=#f8cecc;strokeColor=none;movable=1;resizable=1;rotatable=1;deletable=1;editable=1;locked=0;connectable=1;" vertex="1" parent="SnPpPwCfZL3ynLTcUYY0-64">
          <mxGeometry x="-7.5" y="205.5" width="25" height="10" as="geometry" />
        </mxCell>
        <mxCell id="SnPpPwCfZL3ynLTcUYY0-45" value="" style="rounded=1;whiteSpace=wrap;html=1;rotation=270;fillColor=#f8cecc;strokeColor=none;movable=1;resizable=1;rotatable=1;deletable=1;editable=1;locked=0;connectable=1;" vertex="1" parent="SnPpPwCfZL3ynLTcUYY0-64">
          <mxGeometry x="-7.5" y="229.5" width="25" height="10" as="geometry" />
        </mxCell>
        <mxCell id="SnPpPwCfZL3ynLTcUYY0-46" value="" style="rounded=1;whiteSpace=wrap;html=1;rotation=270;fillColor=#ffe6cc;strokeColor=none;movable=1;resizable=1;rotatable=1;deletable=1;editable=1;locked=0;connectable=1;" vertex="1" parent="SnPpPwCfZL3ynLTcUYY0-64">
          <mxGeometry x="-7.5" y="254.5" width="25" height="10" as="geometry" />
        </mxCell>
        <mxCell id="SnPpPwCfZL3ynLTcUYY0-47" value="" style="rounded=0;whiteSpace=wrap;html=1;rotation=270;arcSize=41;fillColor=#fff2cc;strokeColor=none;movable=1;resizable=1;rotatable=1;deletable=1;editable=1;locked=0;connectable=1;" vertex="1" parent="SnPpPwCfZL3ynLTcUYY0-64">
          <mxGeometry x="-7.5" y="279.5" width="25" height="10" as="geometry" />
        </mxCell>
        <mxCell id="SnPpPwCfZL3ynLTcUYY0-48" value="" style="rounded=1;whiteSpace=wrap;html=1;rotation=270;fillColor=#d5e8d4;strokeColor=none;movable=1;resizable=1;rotatable=1;deletable=1;editable=1;locked=0;connectable=1;" vertex="1" parent="SnPpPwCfZL3ynLTcUYY0-64">
          <mxGeometry x="-7.5" y="303.5" width="25" height="10" as="geometry" />
        </mxCell>
        <mxCell id="SnPpPwCfZL3ynLTcUYY0-49" value="" style="rounded=1;whiteSpace=wrap;html=1;rotation=270;fillColor=#d5e8d4;strokeColor=none;movable=1;resizable=1;rotatable=1;deletable=1;editable=1;locked=0;connectable=1;" vertex="1" parent="SnPpPwCfZL3ynLTcUYY0-64">
          <mxGeometry x="-7.5" y="328.5" width="25" height="10" as="geometry" />
        </mxCell>
        <mxCell id="SnPpPwCfZL3ynLTcUYY0-65" value="" style="rounded=1;whiteSpace=wrap;html=1;fontSize=14;" vertex="1" parent="1">
          <mxGeometry x="80" y="119" width="160" height="341" as="geometry" />
        </mxCell>
        <mxCell id="SnPpPwCfZL3ynLTcUYY0-68" value="" style="shape=flexArrow;endArrow=classic;html=1;rounded=0;strokeColor=#666666;strokeWidth=0.5;fontSize=14;fillColor=#f5f5f5;endWidth=34;endSize=11.44;width=34;" edge="1" parent="1">
          <mxGeometry width="50" height="50" relative="1" as="geometry">
            <mxPoint x="83" y="289" as="sourcePoint" />
            <mxPoint x="243" y="289.5" as="targetPoint" />
          </mxGeometry>
        </mxCell>
        <mxCell id="SnPpPwCfZL3ynLTcUYY0-71" value="Image Preprocessing" style="rounded=1;whiteSpace=wrap;html=1;sketch=0;fontSize=17;opacity=70;strokeColor=none;fontColor=#3ea437;" vertex="1" parent="1">
          <mxGeometry x="97" y="125" width="120" height="60" as="geometry" />
        </mxCell>
        <mxCell id="SnPpPwCfZL3ynLTcUYY0-72" value="Cutting -&amp;nbsp;&lt;br style=&quot;font-size: 17px;&quot;&gt;Tracing" style="rounded=1;whiteSpace=wrap;html=1;sketch=0;fontSize=17;opacity=70;strokeColor=none;" vertex="1" parent="1">
          <mxGeometry x="97" y="197" width="120" height="60" as="geometry" />
        </mxCell>
        <mxCell id="SnPpPwCfZL3ynLTcUYY0-73" value="Artifact &lt;br style=&quot;font-size: 17px;&quot;&gt;removal" style="rounded=1;whiteSpace=wrap;html=1;sketch=0;fontSize=17;opacity=70;strokeColor=none;" vertex="1" parent="1">
          <mxGeometry x="97" y="378" width="120" height="60" as="geometry" />
        </mxCell>
        <mxCell id="SnPpPwCfZL3ynLTcUYY0-74" value="Edge Detection" style="rounded=1;whiteSpace=wrap;html=1;sketch=0;fontSize=17;opacity=70;strokeColor=none;" vertex="1" parent="1">
          <mxGeometry x="97" y="313" width="120" height="60" as="geometry" />
        </mxCell>
        <mxCell id="SnPpPwCfZL3ynLTcUYY0-76" value="Quality&lt;br&gt;Assessment" style="rounded=1;whiteSpace=wrap;html=1;sketch=0;fontSize=17;opacity=70;strokeColor=none;fontColor=#3ea437;" vertex="1" parent="1">
          <mxGeometry x="289" y="125" width="120" height="60" as="geometry" />
        </mxCell>
        <mxCell id="SnPpPwCfZL3ynLTcUYY0-77" value="" style="shape=flexArrow;endArrow=classic;html=1;rounded=0;strokeColor=#666666;strokeWidth=0.5;fontSize=14;fillColor=#f5f5f5;endWidth=34;endSize=11.44;width=34;" edge="1" parent="1">
          <mxGeometry width="50" height="50" relative="1" as="geometry">
            <mxPoint x="272" y="289" as="sourcePoint" />
            <mxPoint x="432" y="289.5" as="targetPoint" />
          </mxGeometry>
        </mxCell>
        <mxCell id="SnPpPwCfZL3ynLTcUYY0-80" value="Concatenation&lt;br&gt;Validation" style="rounded=1;whiteSpace=wrap;html=1;sketch=0;fontSize=17;opacity=70;strokeColor=none;fontColor=#3ea437;" vertex="1" parent="1">
          <mxGeometry x="478" y="125" width="120" height="60" as="geometry" />
        </mxCell>
        <mxCell id="SnPpPwCfZL3ynLTcUYY0-81" value="Visualization" style="rounded=1;whiteSpace=wrap;html=1;fontSize=17;strokeColor=none;" vertex="1" parent="1">
          <mxGeometry x="478" y="214" width="120" height="25" as="geometry" />
        </mxCell>
        <mxCell id="SnPpPwCfZL3ynLTcUYY0-82" value="Resolution" style="rounded=1;whiteSpace=wrap;html=1;fontSize=17;strokeColor=none;" vertex="1" parent="1">
          <mxGeometry x="478" y="330.5" width="120" height="25" as="geometry" />
        </mxCell>
        <mxCell id="SnPpPwCfZL3ynLTcUYY0-83" value="Alignment &amp;amp; Quantification" style="rounded=1;whiteSpace=wrap;html=1;fontSize=17;strokeColor=none;" vertex="1" parent="1">
          <mxGeometry x="478" y="395.5" width="120" height="25" as="geometry" />
        </mxCell>
        <mxCell id="SnPpPwCfZL3ynLTcUYY0-84" value="" style="shape=flexArrow;endArrow=classic;html=1;rounded=0;strokeColor=#666666;strokeWidth=0.5;fontSize=14;fillColor=#f5f5f5;endWidth=34;endSize=11.44;width=34;" edge="1" parent="1">
          <mxGeometry width="50" height="50" relative="1" as="geometry">
            <mxPoint x="460" y="289" as="sourcePoint" />
            <mxPoint x="620" y="289.5" as="targetPoint" />
          </mxGeometry>
        </mxCell>
        <mxCell id="SnPpPwCfZL3ynLTcUYY0-87" value="" style="rounded=1;whiteSpace=wrap;html=1;rotation=270;fillColor=#fff2cc;strokeColor=#d6b656;flipV=1;" vertex="1" parent="1">
          <mxGeometry x="436" y="122" width="20" height="10" as="geometry" />
        </mxCell>
        <mxCell id="SnPpPwCfZL3ynLTcUYY0-88" value="" style="rounded=1;whiteSpace=wrap;html=1;rotation=270;fillColor=#d5e8d4;strokeColor=#82b366;flipV=1;" vertex="1" parent="1">
          <mxGeometry x="436" y="445" width="20" height="10" as="geometry" />
        </mxCell>
      </root>
    </mxGraphModel>
  </diagram>
</mxfile>
